# xmcd CD database file
#
# Track frame offsets:
#	150
#	17735
#	39750
#	61487
#	80466
#	98709
#	116344
#	134976
#	153076
#	172400
#
# Disc length: 2537 seconds
#
# Revision: 0
# Processed by: cddbd v1.5.1PL0 Copyright (c) Steve Scherf et al.
# Submitted via: CDex 1.51
#
DISCID=7e09e70a
DTITLE=Patrick Ki - Aqua
DYEAR=2003
DGENRE=New Age
TTITLE0=Fly Me To The Moon
TTITLE1=I've Got You Under My Skin
TTITLE2=Killing Me Softly
TTITLE3=Suave
TTITLE4=The Look of Love
TTITLE5=I Knew I Loved You
TTITLE6=My Cheri Amour
TTITLE7=Fileds of Gold
TTITLE8=Summer Song
TTITLE9=Smoke Gets in Your Eyes
EXTD=YEAR: 2003
EXTT0=
EXTT1=
EXTT2=
EXTT3=
EXTT4=
EXTT5=
EXTT6=
EXTT7=
EXTT8=
EXTT9=
PLAYORDER=
